<svg width="3082" height="2237" viewBox="0 0 3082 2237" fill="none" xmlns="http://www.w3.org/2000/svg">
<rect x="162" y="242" width="1200" height="300" rx="37.5" fill="white"/>
<g clip-path="url(#clip0_114_471)">
<mask id="mask0_114_471" style="mask-type:luminance" maskUnits="userSpaceOnUse" x="127" y="223" width="1270" height="338">
<path d="M127.756 223.739H1396.32V560.72H127.756V223.739Z" fill="white"/>
</mask>
<g mask="url(#mask0_114_471)">
<path d="M1256.37 381.997V404.932H1272.49V427.687C1272.54 429.72 1272.43 431.913 1272.08 433.668C1271.44 437.912 1267.41 445.139 1255.97 445.139C1244.6 445.139 1240.64 437.912 1239.95 433.668C1239.66 431.913 1239.54 429.72 1239.54 427.687V355.816C1239.54 353.274 1239.71 350.491 1240.25 348.385C1241.03 344.555 1244.42 337.001 1255.88 337.001C1267.91 337.001 1270.91 344.965 1271.6 348.385C1272.06 350.651 1272.08 354.451 1272.08 354.451V363.178H1311.68V358.019C1311.68 358.019 1311.86 352.636 1311.38 347.612C1308.41 318.113 1284.1 308.78 1256.23 308.78C1228.31 308.78 1204.5 318.2 1201.03 347.612C1200.72 350.301 1200.24 355.14 1200.24 358.019V424.133C1200.24 427.012 1200.33 429.242 1200.87 434.504C1203.45 463.191 1228.31 473.36 1256.12 473.36C1284.1 473.36 1308.79 463.191 1311.42 434.504C1311.89 429.242 1311.94 427.012 1312 424.133V381.997H1256.37ZM983.302 313.01H943.531V429.344C943.594 431.372 943.531 433.649 943.182 435.319C942.352 439.225 939.043 446.74 928.07 446.74C917.239 446.74 913.843 439.225 913.075 435.319C912.677 433.649 912.627 431.372 912.677 429.344V313.01H872.919V425.734C872.868 428.64 873.096 434.576 873.268 436.131C876.012 465.505 899.163 475.042 928.07 475.042C957.034 475.042 980.171 465.505 982.965 436.131C983.185 434.576 983.474 428.64 983.302 425.734V313.01ZM617.881 313.01L598.042 435.933L578.215 313.01H514.062L510.659 470.264H549.962L551.026 324.689L578.068 470.264H617.943L645.009 324.689L646.078 470.264H685.479L681.961 313.01H617.881ZM380.356 313.01L351.226 470.264H393.705L415.656 324.689L437.08 470.264H479.264L450.256 313.01H380.356ZM1122.29 439.618L1085.26 313.01H1026.91V468.625H1065.51L1063.27 337.966L1103.04 468.625H1159.01V313.01H1120.15L1122.29 439.618ZM765.217 353.936C764.518 350.83 764.72 347.531 765.081 345.807C766.206 340.773 769.588 335.282 779.333 335.282C788.416 335.282 793.74 340.944 793.74 349.441V359.057H832.51V348.096C832.51 314.214 802.132 308.891 780.139 308.891C752.439 308.891 729.817 318.022 725.686 343.517C724.594 350.455 724.323 356.614 726.062 364.472C732.798 396.261 788.139 405.483 796.171 425.587C797.589 429.395 797.183 434.251 796.46 437.112C795.257 442.344 791.737 447.606 781.304 447.606C771.519 447.606 765.628 441.981 765.628 433.502L765.616 418.41H723.887V430.407C723.887 465.168 751.114 475.656 780.44 475.656C808.525 475.656 831.722 466.058 835.444 440.042C837.219 426.6 835.88 417.845 835.167 414.548C828.665 381.943 769.681 372.135 765.217 353.936ZM253.798 353.55C253.037 350.38 253.215 347.034 253.639 345.29C254.713 340.28 258.115 334.693 268.032 334.693C277.229 334.693 282.645 340.409 282.645 348.975V358.707H321.869V347.66C321.869 313.452 291.027 308 268.793 308C240.861 308 218.038 317.273 213.862 342.951C212.719 350.001 212.523 356.202 214.175 364.147C220.984 396.298 276.872 405.594 285.003 425.938C286.526 429.72 286.066 434.576 285.31 437.549C284.02 442.835 280.472 448.172 269.952 448.172C260.128 448.172 254.253 442.449 254.253 433.853L254.198 418.721H212V430.746C212 465.905 239.613 476.478 269.167 476.478C297.579 476.478 320.912 466.795 324.718 440.479C326.61 426.913 325.19 418.085 324.552 414.737C317.915 381.733 258.275 371.958 253.798 353.55Z" fill="#1428A0"/>
</g>
</g>
<g clip-path="url(#clip1_114_471)">
<path d="M2589 1548H1789V2079.25H2589V1548Z" fill="#FFD403"/>
<path fill-rule="evenodd" clip-rule="evenodd" d="M2379.76 1888.49C2360.59 1888.49 2321.28 1883.65 2321.28 1814C2321.28 1744.34 2360.59 1739.49 2379.76 1739.49C2398.93 1739.49 2438.24 1744.34 2438.24 1814C2438.24 1883.65 2398.93 1888.49 2379.76 1888.49ZM2379.76 1762.51C2357.84 1762.51 2354.79 1782.77 2354.79 1814C2354.79 1844.72 2357.84 1865.49 2379.76 1865.49C2401.68 1865.49 2404.75 1844.61 2404.75 1814C2404.75 1783.67 2401.68 1762.51 2379.76 1762.51ZM2300.38 1767.78C2299.86 1769.17 2298.38 1769.9 2296.95 1769.51C2292.83 1768.37 2284.26 1766.32 2275.35 1766.32C2248.16 1766.32 2239.01 1786.92 2239.01 1814.01C2239.01 1841.11 2248.16 1861.96 2275.35 1861.96C2284.26 1861.96 2292.86 1859.93 2296.95 1858.77C2298.38 1858.38 2299.86 1859.12 2300.38 1860.48L2306.57 1876.12C2307.11 1877.51 2306.5 1879.06 2305.18 1879.7C2299.7 1882.38 2285.22 1888.52 2267.21 1888.52C2218.62 1888.52 2205.65 1851.87 2205.65 1814.01C2205.65 1776.15 2218.62 1739.52 2267.21 1739.52C2285.24 1739.52 2299.72 1745.66 2305.18 1748.33C2306.52 1748.98 2307.11 1750.53 2306.59 1751.9L2300.38 1767.78ZM2126.36 1888.49C2107.19 1888.49 2067.88 1883.65 2067.88 1814C2067.88 1744.34 2107.19 1739.49 2126.36 1739.49C2145.53 1739.49 2184.84 1744.34 2184.84 1814C2184.84 1883.65 2145.53 1888.49 2126.36 1888.49ZM2126.36 1762.51C2104.45 1762.51 2101.39 1782.77 2101.39 1814C2101.39 1844.72 2104.45 1865.49 2126.36 1865.49C2148.26 1865.49 2151.34 1844.61 2151.34 1814C2151.34 1783.67 2148.26 1762.51 2126.36 1762.51ZM1998.92 1834.81C1986.3 1834.81 1979.6 1834.65 1976.03 1834.49C1974.21 1834.41 1972.71 1835.83 1972.71 1837.63L1972.7 1884.49C1972.7 1886.65 1970.92 1888.43 1968.72 1888.43H1943.43C1941.24 1888.43 1939.47 1886.65 1939.47 1884.49V1744.68C1939.47 1742.78 1940.99 1741.22 1942.92 1741.15C1942.92 1741.15 1975.81 1739.96 1998.92 1739.5C2029.16 1738.89 2047.3 1759.72 2047.3 1787.16C2047.3 1814.58 2029.16 1834.81 1998.92 1834.81ZM1990.15 1763.8C1982.7 1763.8 1978.29 1763.89 1975.79 1763.97C1974.06 1764.01 1972.71 1765.41 1972.71 1767.11V1807.2C1972.71 1808.9 1974.06 1810.3 1975.79 1810.36C1978.29 1810.43 1982.7 1810.52 1990.15 1810.52C2008.36 1810.52 2018.53 1803.12 2018.53 1787.16C2018.53 1771.2 2008.36 1763.8 1990.15 1763.8Z" fill="black"/>
</g>
<g clip-path="url(#clip2_114_471)">
<path d="M645 1165H1645V1465H645V1165Z" fill="#FFC915"/>
<path d="M1057.75 1254.36C1073.42 1254.36 1088.53 1259.67 1099.97 1269.06V1256.5H1121.44V1393.14H1099.97V1380.64C1088.72 1389.97 1073.61 1395.25 1057.75 1395.25C1038.31 1395.25 1020.61 1388.06 1007.94 1375C995.389 1362.11 988.5 1344.33 988.5 1324.92C988.5 1305.47 995.417 1287.64 1007.94 1274.69C1020.64 1261.58 1038.33 1254.36 1057.75 1254.36ZM909.111 1253.86C926.694 1253.86 942.639 1260.28 954.055 1271.97C966.194 1284.42 972.667 1301.89 972.805 1322.56V1329.58H862.222C863.555 1355.25 883.139 1374.31 908.611 1374.31C926.889 1374.31 939.972 1366.5 949.805 1349.75L951 1347.72L969.611 1359.69L968.528 1361.56C955.917 1383.25 935.194 1394.72 908.583 1394.72C868.444 1394.72 840.417 1365.81 840.417 1324.42C840.417 1283.53 869.305 1253.86 909.111 1253.86ZM1480.31 1253.86C1497.89 1253.86 1513.83 1260.28 1525.25 1271.97C1537.39 1284.42 1543.86 1301.89 1544 1322.56V1329.58H1433.42C1434.75 1355.25 1454.33 1374.31 1479.81 1374.31C1498.08 1374.31 1511.17 1366.5 1521 1349.75L1522.19 1347.72L1540.81 1359.69L1539.72 1361.56C1527.11 1383.25 1506.39 1394.72 1479.78 1394.72C1439.64 1394.72 1411.61 1365.81 1411.58 1324.42C1411.58 1283.53 1440.5 1253.86 1480.31 1253.86ZM832.139 1256.22V1276.64H769.917V1393.11H748.194V1256.22H832.139ZM1342.64 1254.36C1373.75 1254.36 1393.08 1275.72 1393.08 1310.11V1392.86H1371.36V1310.11C1371.36 1288.64 1359.06 1274.78 1340 1274.78C1315.5 1274.78 1306.78 1291.67 1306.78 1307.47V1392.89H1285.06V1310.14C1285.06 1288.33 1273.14 1274.81 1253.94 1274.81C1238.14 1274.81 1221.25 1287.08 1221.25 1305.36V1392.81H1199.53V1256.19H1221.25V1269.44C1230.22 1259.67 1243 1254.36 1257.92 1254.36C1280 1254.36 1292.08 1265.53 1298.58 1276.11C1308.47 1262.25 1324.31 1254.36 1342.64 1254.36ZM1171.33 1215.89V1392.86H1149.61V1215.89H1171.33ZM1056.67 1276.11C1030.19 1276.11 1010.22 1297.11 1010.22 1324.94C1010.22 1352.64 1030.19 1373.5 1056.67 1373.53C1084.14 1373.53 1102.58 1354 1102.58 1324.94C1102.58 1295.75 1084.14 1276.11 1056.67 1276.11ZM908.611 1274.25C886.722 1274.25 868.444 1288.81 863.222 1309.97H950.722C946.889 1288.5 930.278 1274.25 908.611 1274.25ZM1479.78 1274.25C1457.89 1274.25 1439.61 1288.81 1434.39 1309.97H1521.89C1518.06 1288.5 1501.44 1274.25 1479.78 1274.25Z" fill="#111111"/>
</g>
<rect x="1727" y="715" width="450" height="450" rx="75" fill="white"/>
<g clip-path="url(#clip3_114_471)">
<path d="M2104.24 876.36C2101.92 878.16 2060.96 901.24 2060.96 952.56C2060.96 1011.92 2113.08 1032.92 2114.64 1033.44C2114.4 1034.72 2106.36 1062.2 2087.16 1090.2C2070.04 1114.84 2052.16 1139.44 2024.96 1139.44C1997.76 1139.44 1990.76 1123.64 1959.36 1123.64C1928.76 1123.64 1917.88 1139.96 1893 1139.96C1868.12 1139.96 1850.76 1117.16 1830.8 1089.16C1807.68 1056.28 1789 1005.2 1789 956.72C1789 878.96 1839.56 837.72 1889.32 837.72C1915.76 837.72 1937.8 855.08 1954.4 855.08C1970.2 855.08 1994.84 836.68 2024.92 836.68C2036.32 836.68 2077.28 837.72 2104.24 876.36ZM2010.64 803.76C2023.08 789 2031.88 768.52 2031.88 748.04C2031.88 745.2 2031.64 742.32 2031.12 740C2010.88 740.76 1986.8 753.48 1972.28 770.32C1960.88 783.28 1950.24 803.76 1950.24 824.52C1950.24 827.64 1950.76 830.76 1951 831.76C1952.28 832 1954.36 832.28 1956.44 832.28C1974.6 832.28 1997.44 820.12 2010.64 803.76Z" fill="black"/>
</g>
<rect x="2270" y="991" width="450" height="450" rx="75" fill="white"/>
<g clip-path="url(#clip4_114_471)">
<path d="M2653.31 1057.79C2615.57 1020.2 2561.31 1016 2495 1016C2428.61 1016 2374.26 1020.25 2336.54 1057.94C2298.83 1095.62 2295 1149.88 2295 1216.19C2295 1282.52 2298.83 1336.79 2336.56 1374.49C2374.28 1412.19 2428.61 1416 2495 1416C2561.39 1416 2615.71 1412.19 2653.43 1374.49C2691.16 1336.79 2695 1282.52 2695 1216.19C2695 1149.79 2691.12 1095.48 2653.31 1057.79Z" fill="#FF6900"/>
<path d="M2611.06 1139.91C2612.43 1139.91 2613.58 1141.02 2613.58 1142.38V1290.34C2613.58 1291.68 2612.43 1292.79 2611.06 1292.79H2578.64C2577.25 1292.79 2576.12 1291.68 2576.12 1290.34V1142.38C2576.12 1141.02 2577.25 1139.91 2578.64 1139.91H2611.06ZM2470.37 1139.91C2494.83 1139.91 2520.4 1141.03 2533.01 1153.65C2545.41 1166.07 2546.75 1190.8 2546.8 1214.81V1290.34C2546.8 1291.68 2545.67 1292.79 2544.29 1292.79H2511.87C2510.49 1292.79 2509.35 1291.68 2509.35 1290.34V1213.51C2509.32 1200.1 2508.55 1186.32 2501.63 1179.38C2495.68 1173.41 2484.57 1172.04 2473.02 1171.76H2414.26C2412.88 1171.76 2411.75 1172.87 2411.75 1174.21V1290.34C2411.75 1291.68 2410.61 1292.79 2409.22 1292.79H2376.79C2375.4 1292.79 2374.29 1291.68 2374.29 1290.34V1142.38C2374.29 1141.02 2375.4 1139.91 2376.79 1139.91H2470.37ZM2477.63 1198.84C2479.01 1198.84 2480.13 1199.94 2480.13 1201.29V1290.34C2480.13 1291.68 2479.01 1292.79 2477.63 1292.79H2443.58C2442.18 1292.79 2441.06 1291.68 2441.06 1290.34V1201.29C2441.06 1199.94 2442.18 1198.84 2443.58 1198.84H2477.63Z" fill="white"/>
</g>
<rect x="441" y="1587" width="1100" height="300" rx="37.5" fill="white"/>
<path d="M796.607 1632.1C771.197 1633.68 760.172 1645.9 751.9 1654.58C743.035 1663.84 738.107 1683.35 738.107 1683.35V1632.5H639.04C631.555 1632.5 624.46 1635.65 619.142 1643.14C613.63 1650.44 590.98 1687.89 590.98 1687.89H982.743V1632.1H796.607ZM1289.81 1632.1C1264.6 1633.68 1253.37 1645.9 1245.1 1654.58C1236.24 1663.84 1231.31 1683.35 1231.31 1683.35V1687.89H1488.94V1632.1H1289.81ZM992.388 1632.3V1687.89H1048.14V1632.3H992.388ZM1175.18 1632.3V1687.89H1230.72V1632.3H1175.18ZM588.609 1691.24L492.887 1841.84H558.279L650.462 1697.94L588.609 1691.24ZM992.98 1692.03V1773.12C992.895 1771.45 992.785 1769.1 992.785 1769.1C991.405 1760.82 975.648 1724.16 941.77 1721C921.483 1719.03 740.867 1704.64 740.867 1704.64C744.415 1722.78 752.493 1732.04 758.005 1737.16C770.613 1749.19 790.502 1752.74 790.502 1752.74C795.227 1753.13 929.755 1764.37 929.755 1764.37C934.09 1764.56 942.168 1765.75 941.973 1776.39C941.973 1777.77 940.788 1787.04 930.543 1787.04H735.745V1704.25L681.58 1700.31C681.385 1700.31 681.385 1841.84 681.385 1841.84H941.77C987.07 1832.77 991.803 1791.38 991.803 1791.38C992.598 1786.85 992.871 1782.87 992.98 1779.34V1790.78C1001.85 1838.09 1044.59 1841.84 1044.59 1841.84C1044.59 1841.84 1048.92 1842.03 1049.71 1842.23H1176.75C1176.75 1842.23 1231.11 1837.89 1231.11 1785.46L1230.72 1708L1175.97 1704.64V1769.1C1175.97 1769.1 1175.76 1787.63 1157.85 1787.63H1064.09C1064.09 1787.63 1048.14 1786.25 1048.14 1769.29V1695.97L992.98 1692.03ZM1234.66 1708C1239.98 1726.72 1247.27 1732.44 1252.78 1737.56C1265.39 1749.78 1284.09 1752.54 1284.09 1752.54C1288.83 1752.94 1424.73 1764.37 1424.73 1764.37C1429.06 1764.56 1437.93 1764.96 1437.93 1775.6C1437.93 1778.76 1436.35 1782.11 1434.38 1783.88C1434.38 1783.88 1429.65 1786.45 1425.12 1786.45H1231.71L1231.11 1842.23H1430.44C1480.47 1839.27 1487.56 1791.77 1487.56 1791.77C1489.33 1779.35 1487.96 1769.1 1487.96 1769.1C1486.58 1757.86 1470.63 1723.96 1436.55 1720.61C1416.46 1718.64 1234.66 1708 1234.66 1708Z" fill="black"/>
<rect x="313" y="693" width="1227.55" height="350" rx="37.5" fill="white"/>
<g clip-path="url(#clip5_114_471)">
<path d="M1327.38 955.121H1241.38C1193.04 955.121 1188.75 915.278 1188.75 903.107C1188.75 890.936 1193.04 851.094 1241.38 851.094H1327.38C1375.72 851.094 1380.02 890.936 1380.02 903.107C1380.02 915.278 1375.72 955.121 1327.38 955.121ZM1329.25 807.47H1242.87C1153.11 807.47 1145.12 880.725 1145.12 903.107C1145.12 925.49 1153.11 998.745 1242.87 998.745H1329.25C1419.02 998.745 1427 925.49 1427 903.107C1427 880.725 1419.02 807.47 1329.25 807.47Z" fill="#415FFF"/>
<path d="M1127.85 814.181H1099.85C1087.86 814.181 1085.39 816.198 1080.77 822.969C1076.13 829.738 996.042 950.358 996.042 950.358C993.483 954.066 990.771 955.566 987.402 955.566C984.03 955.566 981.323 954.066 978.767 950.358C978.767 950.358 898.667 829.738 894.04 822.969C889.416 816.194 886.947 814.181 874.954 814.181H846.949C840.508 814.181 837.553 819.151 841.607 825.221L937.272 968.503C952.115 990.039 963.006 998.744 987.402 998.744C1011.8 998.744 1022.69 990.039 1037.54 968.503L1133.2 825.221C1137.25 819.151 1134.31 814.181 1127.85 814.181ZM759.216 825.882C759.216 817.499 762.488 814.181 770.744 814.181H791.313C799.567 814.181 802.839 817.503 802.839 825.882V987.04C802.839 995.421 799.567 998.744 791.313 998.744H770.744C762.491 998.744 759.216 995.421 759.216 987.04V825.882ZM757.496 774.818C750.84 768.164 750.84 762.885 757.496 756.228L771.728 741.996C778.387 735.335 783.665 735.335 790.322 741.993L804.562 756.224C811.215 762.885 811.215 768.164 804.562 774.822L790.322 789.053C783.665 795.711 778.387 795.711 771.731 789.053L757.496 774.822V774.818ZM714.952 814.181H686.981C675 814.181 672.531 816.201 667.913 822.969C663.289 829.738 583.276 950.355 583.276 950.355C580.725 954.063 578.017 955.563 574.652 955.563C571.279 955.563 568.574 954.063 566.021 950.355C566.021 950.355 486.007 829.734 481.39 822.966C476.773 816.201 474.303 814.181 462.323 814.181H434.35C427.162 814.181 424.964 819.151 429.014 825.221C433.058 831.295 524.571 968.499 524.571 968.499C539.4 990.039 550.286 998.744 574.652 998.744C599.014 998.744 609.903 990.039 624.729 968.499L720.289 825.221C724.336 819.151 722.143 814.181 714.952 814.181Z" fill="#415FFF"/>
</g>
<rect x="1588" y="308" width="1153.24" height="300" rx="37.5" fill="white"/>
<path d="M2316.5 411.779H2234.36C2234.36 411.779 2219.47 411.779 2214.05 422.611V411.779H2177.34V564.63H2214.05V466.24C2214.05 454.204 2223.83 444.426 2235.86 444.426H2305.37C2317.4 444.426 2327.18 454.204 2327.18 466.24V564.63H2363.14V455.258C2363.29 455.258 2360.58 411.779 2316.5 411.779Z" fill="black"/>
<path d="M1708.71 367.699H1672V564.63H1708.71V367.699Z" fill="black"/>
<path d="M2140.03 411.629H2103.17V564.781H2140.03V411.629Z" fill="black"/>
<path d="M2437.16 411.779H2400.45V564.63H2437.16V411.779Z" fill="black"/>
<path d="M1885.03 411.779H1802.89C1802.89 411.779 1787.99 411.779 1782.58 422.611V411.779H1745.87V564.63H1782.58V466.24C1782.58 454.204 1792.35 444.426 1804.39 444.426H1874.05C1886.08 444.426 1895.86 454.204 1895.86 466.24V564.63H1931.82V455.258C1931.97 455.258 1929.26 411.779 1885.03 411.779Z" fill="black"/>
<path d="M2140.03 351H2103.17V382.744H2140.03V351Z" fill="black"/>
<path d="M2437.16 351H2400.45V382.744H2437.16V351Z" fill="black"/>
<path d="M2658.16 411.779H2612.27L2559.47 465.187L2506.66 411.779H2460.93L2536.45 488.355L2460.93 564.63H2507.26L2559.47 511.674L2611.82 564.63H2658.16L2582.49 488.355L2658.16 411.779Z" fill="black"/>
<path d="M2021.48 386.505C2023.74 384.098 2026.75 382.744 2030.36 382.744H2071.43V351H2038.93C2038.48 351.15 2033.67 350.85 2027.2 351.15C2026.9 351.15 2026.75 351.15 2026.6 351.15C2013.06 351.15 2000.27 356.115 1992.14 364.69C1985.22 371.912 1981.76 381.991 1981.76 389.965C1981.76 405.611 1981.76 411.779 1981.76 411.779H1934.07C1934.07 411.779 1947.16 416.593 1956.19 444.426H1981.76V564.63H2018.02V444.426H2071.28V411.779H2044.05H2018.02V398.39C2018.02 397.487 2018.02 396.584 2018.17 395.682C2018.17 395.381 2018.02 395.08 2018.02 394.93C2018.02 392.372 2018.92 389.965 2020.28 388.009C2020.73 387.407 2021.03 386.956 2021.48 386.505Z" fill="black"/>
<defs>
<clipPath id="clip0_114_471">
<rect width="1100" height="168.477" fill="white" transform="translate(212 308)"/>
</clipPath>
<clipPath id="clip1_114_471">
<rect width="800" height="531.25" fill="white" transform="translate(1789 1548)"/>
</clipPath>
<clipPath id="clip2_114_471">
<rect width="1000" height="300" fill="white" transform="translate(645 1165)"/>
</clipPath>
<clipPath id="clip3_114_471">
<rect width="325.6" height="400" fill="white" transform="translate(1789 740)"/>
</clipPath>
<clipPath id="clip4_114_471">
<rect width="400" height="400" fill="white" transform="translate(2295 1016)"/>
</clipPath>
<clipPath id="clip5_114_471">
<rect width="1000" height="261.744" fill="white" transform="translate(427 737)"/>
</clipPath>
</defs>
</svg>
