<svg id="visual" viewBox="0 0 900 50" width="900" height="50" xmlns="http://www.w3.org/2000/svg" xmlns:xlink="http://www.w3.org/1999/xlink" version="1.1"><rect x="0" y="0" width="900" height="50" fill="#fff"></rect><path d="M0 37L15 32.7C30 28.3 60 19.7 90 13.8C120 8 150 5 180 11.2C210 17.3 240 32.7 270 33.5C300 34.3 330 20.7 360 17.7C390 14.7 420 22.3 450 26.5C480 30.7 510 31.3 540 30.5C570 29.7 600 27.3 630 23C660 18.7 690 12.3 720 11.2C750 10 780 14 810 19.5C840 25 870 32 885 35.5L900 39L900 0L885 0C870 0 840 0 810 0C780 0 750 0 720 0C690 0 660 0 630 0C600 0 570 0 540 0C510 0 480 0 450 0C420 0 390 0 360 0C330 0 300 0 270 0C240 0 210 0 180 0C150 0 120 0 90 0C60 0 30 0 15 0L0 0Z" fill="#3F83F8" stroke-linecap="round" stroke-linejoin="miter"></path></svg>