<svg width="2000" height="2000" viewBox="0 0 2000 2000" fill="none" xmlns="http://www.w3.org/2000/svg">
<rect width="2000" height="2000" fill="white"/>
<g clip-path="url(#clip0_117_442)">
<path d="M1724.39 697.71C1713.37 706.26 1518.81 815.89 1518.81 1059.66C1518.81 1341.62 1766.38 1441.37 1773.79 1443.84C1772.65 1449.92 1734.46 1580.45 1643.26 1713.45C1561.94 1830.49 1477.01 1947.34 1347.81 1947.34C1218.61 1947.34 1185.36 1872.29 1036.21 1872.29C890.86 1872.29 839.18 1949.81 721 1949.81C602.82 1949.81 520.36 1841.51 425.55 1708.51C315.73 1552.33 227 1309.7 227 1079.42C227 710.06 467.16 514.17 703.52 514.17C829.11 514.17 933.8 596.63 1012.65 596.63C1087.7 596.63 1204.74 509.23 1347.62 509.23C1401.77 509.23 1596.33 514.17 1724.39 697.71ZM1279.79 352.86C1338.88 282.75 1380.68 185.47 1380.68 88.19C1380.68 74.7 1379.54 61.02 1377.07 50C1280.93 53.61 1166.55 114.03 1097.58 194.02C1043.43 255.58 992.89 352.86 992.89 451.47C992.89 466.29 995.36 481.11 996.5 485.86C1002.58 487 1012.46 488.33 1022.34 488.33C1108.6 488.33 1217.09 430.57 1279.79 352.86Z" fill="black"/>
</g>
<defs>
<clipPath id="clip0_117_442">
<rect width="1546.6" height="1900" fill="white" transform="translate(227 50)"/>
</clipPath>
</defs>
</svg>
