<svg width="2000" height="2000" viewBox="0 0 2000 2000" fill="none" xmlns="http://www.w3.org/2000/svg">
<rect width="2000" height="2000" fill="white"/>
<path d="M630.654 800.991C582.375 803.998 561.428 827.212 545.71 843.7C528.866 861.3 519.504 898.364 519.504 898.364V801.747H331.276C317.054 801.747 303.573 807.732 293.47 821.968C282.996 835.834 239.961 906.986 239.961 906.986H984.312V800.991H630.654ZM1567.74 800.991C1519.84 803.998 1498.51 827.212 1482.79 843.7C1465.95 861.3 1456.59 898.364 1456.59 898.364V906.986H1946.09V800.991H1567.74ZM1002.64 801.376V906.986H1108.56V801.376H1002.64ZM1349.94 801.376V906.986H1455.46V801.376H1349.94ZM235.458 913.356L53.585 1199.49H177.831L352.978 926.082L235.458 913.356ZM1003.76 914.853V1068.92C1003.6 1065.76 1003.39 1061.29 1003.39 1061.29C1000.77 1045.56 970.831 975.902 906.464 969.902C867.917 966.154 524.748 938.822 524.748 938.822C531.489 973.279 546.836 990.879 557.31 1000.61C581.264 1023.45 619.055 1030.21 619.055 1030.21C628.032 1030.95 883.635 1052.3 883.635 1052.3C891.872 1052.67 907.219 1054.92 906.849 1075.14C906.849 1077.76 904.597 1095.38 885.131 1095.38H515.015V938.066L412.102 930.585C411.731 930.585 411.731 1199.49 411.731 1199.49H906.464C992.534 1182.26 1001.53 1103.61 1001.53 1103.61C1003.04 1095.02 1003.56 1087.45 1003.76 1080.74V1102.49C1020.61 1192.37 1101.82 1199.49 1101.82 1199.49C1101.82 1199.49 1110.05 1199.86 1111.55 1200.23H1352.93C1352.93 1200.23 1456.22 1192 1456.22 1092.37L1455.46 945.192L1351.44 938.822V1061.29C1351.44 1061.29 1351.05 1096.49 1317.01 1096.49H1138.87C1138.87 1096.49 1108.56 1093.87 1108.56 1061.66V922.349L1003.76 914.853ZM1462.96 945.192C1473.06 980.761 1486.91 991.634 1497.38 1001.37C1521.34 1024.58 1556.88 1029.82 1556.88 1029.82C1565.87 1030.58 1824.09 1052.3 1824.09 1052.3C1832.32 1052.67 1849.16 1053.42 1849.16 1073.65C1849.16 1079.64 1846.17 1086.01 1842.42 1089.38C1842.42 1089.38 1833.44 1094.25 1824.84 1094.25H1457.34L1456.22 1200.23H1834.94C1930 1194.62 1943.47 1104.35 1943.47 1104.35C1946.83 1080.77 1944.22 1061.29 1944.22 1061.29C1941.6 1039.94 1911.29 975.516 1846.54 969.161C1808.38 965.413 1462.96 945.192 1462.96 945.192Z" fill="black"/>
</svg>
