<svg width="2000" height="2000" viewBox="0 0 2000 2000" fill="none" xmlns="http://www.w3.org/2000/svg">
<rect width="2000" height="2000" fill="white"/>
<path d="M1287.85 912.28H1131.78C1131.78 912.28 1103.48 912.28 1093.19 932.861V912.28H1023.45V1202.7H1093.19V1015.76C1093.19 992.888 1111.77 974.308 1134.64 974.308H1266.7C1289.57 974.308 1308.15 992.888 1308.15 1015.76V1202.7H1376.46V994.889C1376.75 994.889 1371.6 912.28 1287.85 912.28Z" fill="black"/>
<path d="M133.046 828.528H63.2998V1202.7H133.046V828.528Z" fill="black"/>
<path d="M952.558 911.994H882.526V1202.98H952.558V911.994Z" fill="black"/>
<path d="M1517.1 912.28H1447.35V1202.7H1517.1V912.28Z" fill="black"/>
<path d="M468.054 912.28H311.984C311.984 912.28 283.685 912.28 273.395 932.861V912.28H203.649V1202.7H273.395V1015.76C273.395 992.888 291.974 974.308 314.842 974.308H447.187C470.055 974.308 488.635 992.888 488.635 1015.76V1202.7H556.951V994.889C557.237 994.889 552.092 912.28 468.054 912.28Z" fill="black"/>
<path d="M952.558 796.8H882.526V857.113H952.558V796.8Z" fill="black"/>
<path d="M1517.1 796.8H1447.35V857.113H1517.1V796.8Z" fill="black"/>
<path d="M1937 912.28H1849.82L1749.49 1013.75L1649.16 912.28H1562.26L1705.75 1057.77L1562.26 1202.7H1650.3L1749.49 1102.08L1848.96 1202.7H1937L1793.22 1057.77L1937 912.28Z" fill="black"/>
<path d="M727.314 864.259C731.601 859.685 737.318 857.113 744.178 857.113H822.214V796.8H760.471C759.614 797.086 750.467 796.514 738.176 797.086C737.604 797.086 737.318 797.086 737.032 797.086C711.306 797.086 687.01 806.518 671.574 822.812C658.425 836.532 651.851 855.684 651.851 870.833C651.851 900.561 651.851 912.28 651.851 912.28H561.239C561.239 912.28 586.107 921.427 603.258 974.308H651.851V1202.7H720.739V974.308H821.928V912.28H770.19H720.739V886.84C720.739 885.125 720.739 883.41 721.025 881.695C721.025 881.124 720.739 880.552 720.739 880.266C720.739 875.407 722.454 870.833 725.027 867.117C725.884 865.974 726.456 865.116 727.314 864.259Z" fill="black"/>
</svg>
