<svg width="2000" height="2000" viewBox="0 0 2000 2000" fill="none" xmlns="http://www.w3.org/2000/svg">
<rect width="2000" height="2000" fill="#FFD403"/>
<g clip-path="url(#clip0_117_453)">
<path d="M2000 336H0V1664.12H2000V336Z" fill="#FFD403"/>
<path fill-rule="evenodd" clip-rule="evenodd" d="M1476.9 1187.23C1428.98 1187.23 1330.7 1175.12 1330.7 1001C1330.7 826.843 1428.98 814.734 1476.9 814.734C1524.82 814.734 1623.1 826.843 1623.1 1001C1623.1 1175.12 1524.82 1187.23 1476.9 1187.23ZM1476.9 872.277C1422.1 872.277 1414.48 922.925 1414.48 1001C1414.48 1077.81 1422.1 1129.73 1476.9 1129.73C1531.69 1129.73 1539.37 1077.53 1539.37 1001C1539.37 925.183 1531.69 872.277 1476.9 872.277ZM1278.45 885.46C1277.15 888.929 1273.46 890.761 1269.87 889.769C1259.59 886.914 1238.16 881.796 1215.88 881.796C1147.89 881.796 1125.04 933.312 1125.04 1001.02C1125.04 1068.77 1147.89 1120.89 1215.88 1120.89C1238.16 1120.89 1259.64 1115.84 1269.87 1112.93C1273.46 1111.94 1277.15 1113.79 1278.45 1117.2L1293.91 1156.31C1295.29 1159.78 1293.75 1163.64 1290.45 1165.26C1276.75 1171.94 1240.54 1187.29 1195.52 1187.29C1074.04 1187.29 1041.64 1095.69 1041.64 1001.03C1041.64 906.382 1074.04 814.796 1195.52 814.796C1240.59 814.796 1276.8 830.144 1290.45 836.835C1293.8 838.457 1295.28 842.335 1293.97 845.761L1278.45 885.46ZM843.391 1187.23C795.473 1187.23 697.187 1175.12 697.187 1001C697.187 826.843 795.473 814.734 843.391 814.734C891.336 814.734 989.59 826.843 989.59 1001C989.59 1175.12 891.336 1187.23 843.391 1187.23ZM843.391 872.277C788.621 872.277 780.977 922.925 780.977 1001C780.977 1077.81 788.625 1129.73 843.391 1129.73C898.156 1129.73 905.859 1077.52 905.859 1001C905.859 925.183 898.156 872.277 843.391 872.277ZM524.809 1053.02C493.262 1053.02 476.492 1052.63 467.566 1052.23C463.023 1052.03 459.27 1055.58 459.27 1060.08L459.242 1177.23C459.242 1182.63 454.809 1187.07 449.293 1187.07H386.082C380.598 1187.07 376.164 1182.63 376.164 1177.23V827.699C376.164 822.953 379.973 819.043 384.805 818.875C384.805 818.875 467.027 815.902 524.809 814.738C600.41 813.234 645.746 865.3 645.746 933.898C645.746 1002.46 600.41 1053.02 524.809 1053.02ZM502.867 875.503C484.25 875.503 473.223 875.714 466.973 875.914C462.652 876.027 459.27 879.523 459.27 883.773V984.003C459.27 988.25 462.652 991.746 466.973 991.89C473.223 992.074 484.25 992.304 502.867 992.304C548.398 992.304 573.832 973.8 573.832 933.898C573.832 893.996 548.402 875.503 502.867 875.503Z" fill="black"/>
</g>
<defs>
<clipPath id="clip0_117_453">
<rect width="2000" height="1328.12" fill="white" transform="translate(0 336)"/>
</clipPath>
</defs>
</svg>
