<svg width="2000" height="2000" viewBox="0 0 2000 2000" fill="none" xmlns="http://www.w3.org/2000/svg">
<rect width="2000" height="2000" fill="#FFC915"/>
<g clip-path="url(#clip0_117_455)">
<rect width="2000" height="600" transform="translate(0 700)" fill="white"/>
<path d="M0 700H2000V1300H0V700Z" fill="#FFC915"/>
<path d="M825.5 878.722C856.833 878.722 887.055 889.333 909.944 908.111V883H952.889V1156.28H909.944V1131.28C887.444 1149.94 857.222 1160.5 825.5 1160.5C786.611 1160.5 751.222 1146.11 725.889 1120C700.778 1094.22 687 1058.67 687 1019.83C687 980.944 700.833 945.277 725.889 919.388C751.278 893.166 786.666 878.722 825.5 878.722ZM528.222 877.722C563.389 877.722 595.278 890.555 618.111 913.944C642.389 938.833 655.333 973.777 655.611 1015.11V1029.17H434.444C437.111 1080.5 476.278 1118.61 527.222 1118.61C563.778 1118.61 589.944 1103 609.611 1069.5L612 1065.44L649.222 1089.39L647.055 1093.11C621.833 1136.5 580.389 1159.44 527.166 1159.44C446.889 1159.44 390.833 1101.61 390.833 1018.83C390.833 937.055 448.611 877.722 528.222 877.722ZM1670.61 877.722C1705.78 877.722 1737.67 890.555 1760.5 913.944C1784.78 938.833 1797.72 973.777 1798 1015.11V1029.17H1576.83C1579.5 1080.5 1618.67 1118.61 1669.61 1118.61C1706.17 1118.61 1732.33 1103 1752 1069.5L1754.39 1065.44L1791.61 1089.39L1789.44 1093.11C1764.22 1136.5 1722.78 1159.44 1669.56 1159.44C1589.28 1159.44 1533.22 1101.61 1533.17 1018.83C1533.17 937.055 1591 877.722 1670.61 877.722ZM374.278 882.444V923.277H249.833V1156.22H206.389V882.444H374.278ZM1395.28 878.722C1457.5 878.722 1496.17 921.444 1496.17 990.222V1155.72H1452.72V990.222C1452.72 947.277 1428.11 919.555 1390 919.555C1341 919.555 1323.56 953.333 1323.56 984.944V1155.78H1280.11V990.277C1280.11 946.666 1256.28 919.611 1217.89 919.611C1186.28 919.611 1152.5 944.166 1152.5 980.722V1155.61H1109.06V882.388H1152.5V908.888C1170.44 889.333 1196 878.722 1225.83 878.722C1270 878.722 1294.17 901.055 1307.17 922.222C1326.94 894.5 1358.61 878.722 1395.28 878.722ZM1052.67 801.777V1155.72H1009.22V801.777H1052.67ZM823.333 922.222C770.389 922.222 730.444 964.222 730.444 1019.89C730.444 1075.28 770.389 1117 823.333 1117.06C878.278 1117.06 915.166 1078 915.166 1019.89C915.166 961.5 878.278 922.222 823.333 922.222ZM527.222 918.5C483.444 918.5 446.889 947.611 436.444 989.944H611.444C603.778 947 570.555 918.5 527.222 918.5ZM1669.56 918.5C1625.78 918.5 1589.22 947.611 1578.78 989.944H1753.78C1746.11 947 1712.89 918.5 1669.56 918.5Z" fill="#111111"/>
</g>
<defs>
<clipPath id="clip0_117_455">
<rect width="2000" height="600" fill="white" transform="translate(0 700)"/>
</clipPath>
</defs>
</svg>
