<svg width="2000" height="2000" viewBox="0 0 2000 2000" fill="none" xmlns="http://www.w3.org/2000/svg">
<rect width="2000" height="2000" fill="white"/>
<g clip-path="url(#clip0_117_387)">
<mask id="mask0_117_387" style="mask-type:luminance" maskUnits="userSpaceOnUse" x="-96" y="708" width="2192" height="583">
<path d="M-95.5127 708.458H2095.64V1290.52H-95.5127V708.458Z" fill="white"/>
</mask>
<g mask="url(#mask0_117_387)">
<path d="M1853.92 981.813V1021.43H1881.76V1060.73C1881.85 1064.24 1881.65 1068.03 1881.05 1071.06C1879.94 1078.39 1872.98 1090.88 1853.22 1090.88C1833.57 1090.88 1826.73 1078.39 1825.55 1071.06C1825.05 1068.03 1824.84 1064.24 1824.84 1060.73V936.59C1824.84 932.199 1825.13 927.393 1826.07 923.755C1827.42 917.139 1833.28 904.091 1853.07 904.091C1873.85 904.091 1879.03 917.847 1880.22 923.755C1881 927.669 1881.05 934.233 1881.05 934.233V949.307H1949.46V940.396C1949.46 940.396 1949.77 931.097 1948.94 922.42C1943.8 871.467 1901.81 855.346 1853.67 855.346C1805.45 855.346 1764.32 871.617 1758.33 922.42C1757.79 927.065 1756.96 935.422 1756.96 940.396V1054.59C1756.96 1059.57 1757.12 1063.42 1758.04 1072.51C1762.5 1122.06 1805.45 1139.62 1853.48 1139.62C1901.81 1139.62 1944.46 1122.06 1949 1072.51C1949.81 1063.42 1949.89 1059.57 1950 1054.59V981.813H1853.92ZM1382.25 862.653H1313.55V1063.59C1313.66 1067.1 1313.55 1071.03 1312.95 1073.91C1311.52 1080.66 1305.8 1093.64 1286.85 1093.64C1268.14 1093.64 1262.27 1080.66 1260.95 1073.91C1260.26 1071.03 1260.17 1067.1 1260.26 1063.59V862.653H1191.59V1057.36C1191.5 1062.38 1191.89 1072.63 1192.19 1075.32C1196.93 1126.05 1236.92 1142.53 1286.85 1142.53C1336.88 1142.53 1376.84 1126.05 1381.67 1075.32C1382.05 1072.63 1382.55 1062.38 1382.25 1057.36V862.653ZM751.067 862.653L716.8 1074.97L682.553 862.653H571.743L565.866 1134.27H633.752L635.59 882.826L682.299 1134.27H751.175L797.925 882.826L799.77 1134.27H867.827L861.751 862.653H751.067ZM340.797 862.653L290.482 1134.27H363.854L401.77 882.826L438.775 1134.27H511.638L461.533 862.653H340.797ZM1622.33 1081.34L1558.36 862.653H1457.56V1131.44H1524.24L1520.37 905.758L1589.07 1131.44H1685.74V862.653H1618.62L1622.33 1081.34ZM1005.56 933.343C1004.35 927.979 1004.7 922.28 1005.32 919.302C1007.26 910.606 1013.11 901.123 1029.94 901.123C1045.63 901.123 1054.82 910.903 1054.82 925.579V942.188H1121.79V923.257C1121.79 864.732 1069.32 855.538 1031.33 855.538C983.485 855.538 944.412 871.31 937.276 915.346C935.389 927.33 934.921 937.968 937.924 951.542C949.56 1006.45 1045.15 1022.38 1059.02 1057.1C1061.47 1063.68 1060.77 1072.07 1059.52 1077.01C1057.44 1086.05 1051.36 1095.14 1033.34 1095.14C1016.44 1095.14 1006.27 1085.42 1006.27 1070.78L1006.25 1044.71H934.168V1065.43C934.168 1125.47 981.197 1143.59 1031.85 1143.59C1080.36 1143.59 1120.43 1127.01 1126.86 1082.07C1129.92 1058.85 1127.61 1043.73 1126.38 1038.04C1115.15 981.719 1013.27 964.779 1005.56 933.343ZM122.197 932.677C120.882 927.201 121.189 921.422 121.921 918.409C123.777 909.755 129.654 900.105 146.782 900.105C162.669 900.105 172.023 909.979 172.023 924.774V941.585H239.773V922.503C239.773 863.417 186.501 854 148.097 854C99.8507 854 60.4284 870.016 53.2157 914.37C51.2416 926.546 50.9032 937.257 53.7562 950.981C65.517 1006.51 162.052 1022.57 176.097 1057.71C178.727 1064.24 177.931 1072.63 176.627 1077.77C174.398 1086.9 168.27 1096.11 150.099 1096.11C133.131 1096.11 122.982 1086.23 122.982 1071.38L122.887 1045.25H50V1066.01C50 1126.74 97.6952 1145.01 148.742 1145.01C197.819 1145.01 238.12 1128.28 244.694 1082.83C247.962 1059.39 245.511 1044.15 244.409 1038.36C232.944 981.356 129.929 964.472 122.197 932.677Z" fill="#1428A0"/>
</g>
</g>
<defs>
<clipPath id="clip0_117_387">
<rect width="1900" height="291.006" fill="white" transform="translate(50 854)"/>
</clipPath>
</defs>
</svg>
