<svg width="2000" height="2000" viewBox="0 0 2000 2000" fill="none" xmlns="http://www.w3.org/2000/svg">
<rect width="2000" height="2000" fill="white"/>
<g clip-path="url(#clip0_117_457)">
<path d="M1760.72 1165.43H1597.32C1505.48 1165.43 1497.32 1089.73 1497.32 1066.6C1497.32 1043.48 1505.48 967.779 1597.32 967.779H1760.72C1852.57 967.779 1860.74 1043.48 1860.74 1066.6C1860.74 1089.73 1852.57 1165.43 1760.72 1165.43ZM1764.27 884.893H1600.16C1429.6 884.893 1414.43 1024.08 1414.43 1066.6C1414.43 1109.13 1429.6 1248.32 1600.16 1248.32H1764.27C1934.83 1248.32 1950 1109.13 1950 1066.6C1950 1024.08 1934.83 884.893 1764.27 884.893Z" fill="#415FFF"/>
<path d="M1381.62 897.643H1328.42C1305.63 897.643 1300.94 901.475 1292.16 914.342C1283.36 927.202 1131.18 1156.38 1131.18 1156.38C1126.32 1163.43 1121.16 1166.28 1114.76 1166.28C1108.36 1166.28 1103.21 1163.43 1098.36 1156.38C1098.36 1156.38 946.167 927.202 937.377 914.342C928.591 901.469 923.9 897.643 901.113 897.643H847.904C835.665 897.643 830.051 907.086 837.753 918.62L1019.52 1190.86C1047.72 1231.77 1068.41 1248.31 1114.76 1248.31C1161.12 1248.31 1181.81 1231.77 1210.02 1190.86L1391.77 918.62C1399.48 907.086 1393.88 897.643 1381.62 897.643ZM681.211 919.876C681.211 903.949 687.427 897.643 703.114 897.643H742.195C757.877 897.643 764.094 903.956 764.094 919.876V1226.08C764.094 1242 757.877 1248.31 742.195 1248.31H703.114C687.432 1248.31 681.211 1242 681.211 1226.08V919.876ZM677.943 822.855C665.296 810.212 665.296 800.182 677.943 787.533L704.984 760.493C717.635 747.837 727.664 747.837 740.311 760.486L767.367 787.526C780.009 800.182 780.009 810.212 767.367 822.861L740.311 849.901C727.664 862.551 717.635 862.551 704.989 849.901L677.943 822.861V822.855ZM597.109 897.643H543.964C521.201 897.643 516.508 901.482 507.735 914.341C498.949 927.202 346.924 1156.37 346.924 1156.37C342.078 1163.42 336.933 1166.27 330.538 1166.27C324.13 1166.27 318.991 1163.42 314.139 1156.37C314.139 1156.37 162.114 927.195 153.341 914.335C144.568 901.482 139.875 897.643 117.114 897.643H63.9646C50.3076 897.643 46.1314 907.086 53.8271 918.62C61.51 930.16 235.385 1190.85 235.385 1190.85C263.56 1231.77 284.243 1248.31 330.538 1248.31C376.827 1248.31 397.516 1231.77 425.684 1190.85L607.25 918.62C614.938 907.086 610.771 897.643 597.109 897.643Z" fill="#415FFF"/>
</g>
<defs>
<clipPath id="clip0_117_457">
<rect width="1900" height="497.314" fill="white" transform="translate(50 751)"/>
</clipPath>
</defs>
</svg>
