<svg width="2000" height="2000" viewBox="0 0 2000 2000" fill="none" xmlns="http://www.w3.org/2000/svg">
<rect width="2000" height="2000" fill="white"/>
<g clip-path="url(#clip0_117_452)">
<path d="M1751.96 248.52C1572.71 69.9574 1314.97 50 1000 50C684.637 50 426.504 70.1875 247.325 249.233C68.1724 428.204 50 685.921 50 1000.92C50 1315.98 68.1725 1573.77 247.4 1752.81C426.567 1931.88 684.671 1950 1000 1950C1315.33 1950 1573.39 1931.88 1752.56 1752.81C1931.78 1573.74 1950 1315.98 1950 1000.92C1950 685.517 1931.58 427.521 1751.96 248.52Z" fill="#FF6900"/>
<path d="M1551.27 638.574C1557.8 638.574 1563.23 643.833 1563.23 650.305V1353.1C1563.23 1359.47 1557.8 1364.75 1551.27 1364.75H1397.29C1390.68 1364.75 1385.31 1359.47 1385.31 1353.1V650.305C1385.31 643.836 1390.67 638.574 1397.29 638.574H1551.27ZM883.016 638.574C999.18 638.574 1120.64 643.899 1180.54 703.846C1239.44 762.839 1245.82 880.297 1246.06 994.36V1353.1C1246.06 1359.46 1240.7 1364.75 1234.12 1364.75H1080.15C1073.56 1364.75 1068.17 1359.46 1068.17 1353.1V988.189C1068.01 924.483 1064.34 859.011 1031.49 826.051C1003.21 797.696 950.448 791.201 895.578 789.854H616.478C609.932 789.854 604.573 795.12 604.573 801.492V1353.1C604.573 1359.47 599.148 1364.75 592.561 1364.75H438.498C431.915 1364.75 426.619 1359.47 426.619 1353.1V650.305C426.619 643.836 431.911 638.574 438.498 638.574H883.016ZM917.48 918.479C924.033 918.479 929.358 923.723 929.358 930.143V1353.1C929.358 1359.47 924.029 1364.75 917.48 1364.75H755.742C749.092 1364.75 743.763 1359.47 743.763 1353.1V930.143C743.763 923.723 749.092 918.479 755.742 918.479H917.48Z" fill="white"/>
</g>
<defs>
<clipPath id="clip0_117_452">
<rect width="1900" height="1900" fill="white" transform="translate(50 50)"/>
</clipPath>
</defs>
</svg>
